<?xml version="1.0" encoding="utf-8" ?>
<svg baseProfile="full" height="140" version="1.1" width="420" xmlns="http://www.w3.org/2000/svg" xmlns:ev="http://www.w3.org/2001/xml-events" xmlns:xlink="http://www.w3.org/1999/xlink"><defs /><rect fill="rgb(255,255,255)" height="20" stroke="black" stroke-width="1" width="20" x="20" y="20" /><text alignment-baseline="central" font-size="8px" text-anchor="middle" x="30" y="30">0</text><rect fill="rgb(255,255,255)" height="20" stroke="black" stroke-width="1" width="20" x="40" y="20" /><text alignment-baseline="central" font-size="8px" text-anchor="middle" x="50" y="30">24</text><rect fill="rgb(255,255,255)" height="20" stroke="black" stroke-width="1" width="20" x="60" y="20" /><text alignment-baseline="central" font-size="8px" text-anchor="middle" x="70" y="30">48</text><rect fill="rgb(255,255,255)" height="20" stroke="black" stroke-width="1" width="20" x="80" y="20" /><text alignment-baseline="central" font-size="8px" text-anchor="middle" x="90" y="30">72</text><rect fill="rgb(255,255,255)" height="20" stroke="black" stroke-width="1" width="20" x="100" y="20" /><text alignment-baseline="central" font-size="8px" text-anchor="middle" x="110" y="30">96</text><rect fill="rgb(230,230,230)" height="20" stroke="black" stroke-width="1" width="20" x="120" y="20" /><text alignment-baseline="central" font-size="8px" text-anchor="middle" x="130" y="30">1</text><rect fill="rgb(230,230,230)" height="20" stroke="black" stroke-width="1" width="20" x="140" y="20" /><text alignment-baseline="central" font-size="8px" text-anchor="middle" x="150" y="30">25</text><rect fill="rgb(230,230,230)" height="20" stroke="black" stroke-width="1" width="20" x="160" y="20" /><text alignment-baseline="central" font-size="8px" text-anchor="middle" x="170" y="30">49</text><rect fill="rgb(230,230,230)" height="20" stroke="black" stroke-width="1" width="20" x="180" y="20" /><text alignment-baseline="central" font-size="8px" text-anchor="middle" x="190" y="30">73</text><rect fill="rgb(230,230,230)" height="20" stroke="black" stroke-width="1" width="20" x="200" y="20" /><text alignment-baseline="central" font-size="8px" text-anchor="middle" x="210" y="30">97</text><rect fill="rgb(205,205,205)" height="20" stroke="black" stroke-width="1" width="20" x="220" y="20" /><text alignment-baseline="central" font-size="8px" text-anchor="middle" x="230" y="30">2</text><rect fill="rgb(205,205,205)" height="20" stroke="black" stroke-width="1" width="20" x="240" y="20" /><text alignment-baseline="central" font-size="8px" text-anchor="middle" x="250" y="30">26</text><rect fill="rgb(205,205,205)" height="20" stroke="black" stroke-width="1" width="20" x="260" y="20" /><text alignment-baseline="central" font-size="8px" text-anchor="middle" x="270" y="30">50</text><rect fill="rgb(205,205,205)" height="20" stroke="black" stroke-width="1" width="20" x="280" y="20" /><text alignment-baseline="central" font-size="8px" text-anchor="middle" x="290" y="30">74</text><rect fill="rgb(205,205,205)" height="20" stroke="black" stroke-width="1" width="20" x="300" y="20" /><text alignment-baseline="central" font-size="8px" text-anchor="middle" x="310" y="30">98</text><rect fill="rgb(180,180,180)" height="20" stroke="black" stroke-width="1" width="20" x="320" y="20" /><text alignment-baseline="central" font-size="8px" text-anchor="middle" x="330" y="30">3</text><rect fill="rgb(180,180,180)" height="20" stroke="black" stroke-width="1" width="20" x="340" y="20" /><text alignment-baseline="central" font-size="8px" text-anchor="middle" x="350" y="30">27</text><rect fill="rgb(180,180,180)" height="20" stroke="black" stroke-width="1" width="20" x="360" y="20" /><text alignment-baseline="central" font-size="8px" text-anchor="middle" x="370" y="30">51</text><rect fill="rgb(180,180,180)" height="20" stroke="black" stroke-width="1" width="20" x="380" y="20" /><text alignment-baseline="central" font-size="8px" text-anchor="middle" x="390" y="30">75</text><rect fill="rgb(180,180,180)" height="20" stroke="black" stroke-width="1" width="20" x="400" y="20" /><text alignment-baseline="central" font-size="8px" text-anchor="middle" x="410" y="30">99</text><rect fill="rgb(155,155,155)" height="20" stroke="black" stroke-width="1" width="20" x="20" y="40" /><text alignment-baseline="central" font-size="8px" text-anchor="middle" x="30" y="50">12</text><rect fill="rgb(155,155,155)" height="20" stroke="black" stroke-width="1" width="20" x="40" y="40" /><text alignment-baseline="central" font-size="8px" text-anchor="middle" x="50" y="50">36</text><rect fill="rgb(155,155,155)" height="20" stroke="black" stroke-width="1" width="20" x="60" y="40" /><text alignment-baseline="central" font-size="8px" text-anchor="middle" x="70" y="50">60</text><rect fill="rgb(155,155,155)" height="20" stroke="black" stroke-width="1" width="20" x="80" y="40" /><text alignment-baseline="central" font-size="8px" text-anchor="middle" x="90" y="50">84</text><rect fill="rgb(155,155,155)" height="20" stroke="black" stroke-width="1" width="20" x="100" y="40" /><text alignment-baseline="central" font-size="8px" text-anchor="middle" x="110" y="50">108</text><rect fill="rgb(130,130,130)" height="20" stroke="black" stroke-width="1" width="20" x="120" y="40" /><text alignment-baseline="central" font-size="8px" text-anchor="middle" x="130" y="50">13</text><rect fill="rgb(130,130,130)" height="20" stroke="black" stroke-width="1" width="20" x="140" y="40" /><text alignment-baseline="central" font-size="8px" text-anchor="middle" x="150" y="50">37</text><rect fill="rgb(130,130,130)" height="20" stroke="black" stroke-width="1" width="20" x="160" y="40" /><text alignment-baseline="central" font-size="8px" text-anchor="middle" x="170" y="50">61</text><rect fill="rgb(130,130,130)" height="20" stroke="black" stroke-width="1" width="20" x="180" y="40" /><text alignment-baseline="central" font-size="8px" text-anchor="middle" x="190" y="50">85</text><rect fill="rgb(130,130,130)" height="20" stroke="black" stroke-width="1" width="20" x="200" y="40" /><text alignment-baseline="central" font-size="8px" text-anchor="middle" x="210" y="50">109</text><rect fill="rgb(105,105,105)" height="20" stroke="black" stroke-width="1" width="20" x="220" y="40" /><text alignment-baseline="central" font-size="8px" text-anchor="middle" x="230" y="50">14</text><rect fill="rgb(105,105,105)" height="20" stroke="black" stroke-width="1" width="20" x="240" y="40" /><text alignment-baseline="central" font-size="8px" text-anchor="middle" x="250" y="50">38</text><rect fill="rgb(105,105,105)" height="20" stroke="black" stroke-width="1" width="20" x="260" y="40" /><text alignment-baseline="central" font-size="8px" text-anchor="middle" x="270" y="50">62</text><rect fill="rgb(105,105,105)" height="20" stroke="black" stroke-width="1" width="20" x="280" y="40" /><text alignment-baseline="central" font-size="8px" text-anchor="middle" x="290" y="50">86</text><rect fill="rgb(105,105,105)" height="20" stroke="black" stroke-width="1" width="20" x="300" y="40" /><text alignment-baseline="central" font-size="8px" text-anchor="middle" x="310" y="50">110</text><rect fill="rgb(80,80,80)" height="20" stroke="black" stroke-width="1" width="20" x="320" y="40" /><text alignment-baseline="central" font-size="8px" text-anchor="middle" x="330" y="50">15</text><rect fill="rgb(80,80,80)" height="20" stroke="black" stroke-width="1" width="20" x="340" y="40" /><text alignment-baseline="central" font-size="8px" text-anchor="middle" x="350" y="50">39</text><rect fill="rgb(80,80,80)" height="20" stroke="black" stroke-width="1" width="20" x="360" y="40" /><text alignment-baseline="central" font-size="8px" text-anchor="middle" x="370" y="50">63</text><rect fill="rgb(80,80,80)" height="20" stroke="black" stroke-width="1" width="20" x="380" y="40" /><text alignment-baseline="central" font-size="8px" text-anchor="middle" x="390" y="50">87</text><rect fill="rgb(80,80,80)" height="20" stroke="black" stroke-width="1" width="20" x="400" y="40" /><text alignment-baseline="central" font-size="8px" text-anchor="middle" x="410" y="50">111</text><rect fill="rgb(155,155,155)" height="20" stroke="black" stroke-width="1" width="20" x="20" y="60" /><text alignment-baseline="central" font-size="8px" text-anchor="middle" x="30" y="70">4</text><rect fill="rgb(155,155,155)" height="20" stroke="black" stroke-width="1" width="20" x="40" y="60" /><text alignment-baseline="central" font-size="8px" text-anchor="middle" x="50" y="70">28</text><rect fill="rgb(155,155,155)" height="20" stroke="black" stroke-width="1" width="20" x="60" y="60" /><text alignment-baseline="central" font-size="8px" text-anchor="middle" x="70" y="70">52</text><rect fill="rgb(155,155,155)" height="20" stroke="black" stroke-width="1" width="20" x="80" y="60" /><text alignment-baseline="central" font-size="8px" text-anchor="middle" x="90" y="70">76</text><rect fill="rgb(155,155,155)" height="20" stroke="black" stroke-width="1" width="20" x="100" y="60" /><text alignment-baseline="central" font-size="8px" text-anchor="middle" x="110" y="70">100</text><rect fill="rgb(130,130,130)" height="20" stroke="black" stroke-width="1" width="20" x="120" y="60" /><text alignment-baseline="central" font-size="8px" text-anchor="middle" x="130" y="70">5</text><rect fill="rgb(130,130,130)" height="20" stroke="black" stroke-width="1" width="20" x="140" y="60" /><text alignment-baseline="central" font-size="8px" text-anchor="middle" x="150" y="70">29</text><rect fill="rgb(130,130,130)" height="20" stroke="black" stroke-width="1" width="20" x="160" y="60" /><text alignment-baseline="central" font-size="8px" text-anchor="middle" x="170" y="70">53</text><rect fill="rgb(130,130,130)" height="20" stroke="black" stroke-width="1" width="20" x="180" y="60" /><text alignment-baseline="central" font-size="8px" text-anchor="middle" x="190" y="70">77</text><rect fill="rgb(130,130,130)" height="20" stroke="black" stroke-width="1" width="20" x="200" y="60" /><text alignment-baseline="central" font-size="8px" text-anchor="middle" x="210" y="70">101</text><rect fill="rgb(105,105,105)" height="20" stroke="black" stroke-width="1" width="20" x="220" y="60" /><text alignment-baseline="central" font-size="8px" text-anchor="middle" x="230" y="70">6</text><rect fill="rgb(105,105,105)" height="20" stroke="black" stroke-width="1" width="20" x="240" y="60" /><text alignment-baseline="central" font-size="8px" text-anchor="middle" x="250" y="70">30</text><rect fill="rgb(105,105,105)" height="20" stroke="black" stroke-width="1" width="20" x="260" y="60" /><text alignment-baseline="central" font-size="8px" text-anchor="middle" x="270" y="70">54</text><rect fill="rgb(105,105,105)" height="20" stroke="black" stroke-width="1" width="20" x="280" y="60" /><text alignment-baseline="central" font-size="8px" text-anchor="middle" x="290" y="70">78</text><rect fill="rgb(105,105,105)" height="20" stroke="black" stroke-width="1" width="20" x="300" y="60" /><text alignment-baseline="central" font-size="8px" text-anchor="middle" x="310" y="70">102</text><rect fill="rgb(80,80,80)" height="20" stroke="black" stroke-width="1" width="20" x="320" y="60" /><text alignment-baseline="central" font-size="8px" text-anchor="middle" x="330" y="70">7</text><rect fill="rgb(80,80,80)" height="20" stroke="black" stroke-width="1" width="20" x="340" y="60" /><text alignment-baseline="central" font-size="8px" text-anchor="middle" x="350" y="70">31</text><rect fill="rgb(80,80,80)" height="20" stroke="black" stroke-width="1" width="20" x="360" y="60" /><text alignment-baseline="central" font-size="8px" text-anchor="middle" x="370" y="70">55</text><rect fill="rgb(80,80,80)" height="20" stroke="black" stroke-width="1" width="20" x="380" y="60" /><text alignment-baseline="central" font-size="8px" text-anchor="middle" x="390" y="70">79</text><rect fill="rgb(80,80,80)" height="20" stroke="black" stroke-width="1" width="20" x="400" y="60" /><text alignment-baseline="central" font-size="8px" text-anchor="middle" x="410" y="70">103</text><rect fill="rgb(255,255,255)" height="20" stroke="black" stroke-width="1" width="20" x="20" y="80" /><text alignment-baseline="central" font-size="8px" text-anchor="middle" x="30" y="90">16</text><rect fill="rgb(255,255,255)" height="20" stroke="black" stroke-width="1" width="20" x="40" y="80" /><text alignment-baseline="central" font-size="8px" text-anchor="middle" x="50" y="90">40</text><rect fill="rgb(255,255,255)" height="20" stroke="black" stroke-width="1" width="20" x="60" y="80" /><text alignment-baseline="central" font-size="8px" text-anchor="middle" x="70" y="90">64</text><rect fill="rgb(255,255,255)" height="20" stroke="black" stroke-width="1" width="20" x="80" y="80" /><text alignment-baseline="central" font-size="8px" text-anchor="middle" x="90" y="90">88</text><rect fill="rgb(255,255,255)" height="20" stroke="black" stroke-width="1" width="20" x="100" y="80" /><text alignment-baseline="central" font-size="8px" text-anchor="middle" x="110" y="90">112</text><rect fill="rgb(230,230,230)" height="20" stroke="black" stroke-width="1" width="20" x="120" y="80" /><text alignment-baseline="central" font-size="8px" text-anchor="middle" x="130" y="90">17</text><rect fill="rgb(230,230,230)" height="20" stroke="black" stroke-width="1" width="20" x="140" y="80" /><text alignment-baseline="central" font-size="8px" text-anchor="middle" x="150" y="90">41</text><rect fill="rgb(230,230,230)" height="20" stroke="black" stroke-width="1" width="20" x="160" y="80" /><text alignment-baseline="central" font-size="8px" text-anchor="middle" x="170" y="90">65</text><rect fill="rgb(230,230,230)" height="20" stroke="black" stroke-width="1" width="20" x="180" y="80" /><text alignment-baseline="central" font-size="8px" text-anchor="middle" x="190" y="90">89</text><rect fill="rgb(230,230,230)" height="20" stroke="black" stroke-width="1" width="20" x="200" y="80" /><text alignment-baseline="central" font-size="8px" text-anchor="middle" x="210" y="90">113</text><rect fill="rgb(205,205,205)" height="20" stroke="black" stroke-width="1" width="20" x="220" y="80" /><text alignment-baseline="central" font-size="8px" text-anchor="middle" x="230" y="90">18</text><rect fill="rgb(205,205,205)" height="20" stroke="black" stroke-width="1" width="20" x="240" y="80" /><text alignment-baseline="central" font-size="8px" text-anchor="middle" x="250" y="90">42</text><rect fill="rgb(205,205,205)" height="20" stroke="black" stroke-width="1" width="20" x="260" y="80" /><text alignment-baseline="central" font-size="8px" text-anchor="middle" x="270" y="90">66</text><rect fill="rgb(205,205,205)" height="20" stroke="black" stroke-width="1" width="20" x="280" y="80" /><text alignment-baseline="central" font-size="8px" text-anchor="middle" x="290" y="90">90</text><rect fill="rgb(205,205,205)" height="20" stroke="black" stroke-width="1" width="20" x="300" y="80" /><text alignment-baseline="central" font-size="8px" text-anchor="middle" x="310" y="90">114</text><rect fill="rgb(180,180,180)" height="20" stroke="black" stroke-width="1" width="20" x="320" y="80" /><text alignment-baseline="central" font-size="8px" text-anchor="middle" x="330" y="90">19</text><rect fill="rgb(180,180,180)" height="20" stroke="black" stroke-width="1" width="20" x="340" y="80" /><text alignment-baseline="central" font-size="8px" text-anchor="middle" x="350" y="90">43</text><rect fill="rgb(180,180,180)" height="20" stroke="black" stroke-width="1" width="20" x="360" y="80" /><text alignment-baseline="central" font-size="8px" text-anchor="middle" x="370" y="90">67</text><rect fill="rgb(180,180,180)" height="20" stroke="black" stroke-width="1" width="20" x="380" y="80" /><text alignment-baseline="central" font-size="8px" text-anchor="middle" x="390" y="90">91</text><rect fill="rgb(180,180,180)" height="20" stroke="black" stroke-width="1" width="20" x="400" y="80" /><text alignment-baseline="central" font-size="8px" text-anchor="middle" x="410" y="90">115</text><rect fill="rgb(255,255,255)" height="20" stroke="black" stroke-width="1" width="20" x="20" y="100" /><text alignment-baseline="central" font-size="8px" text-anchor="middle" x="30" y="110">8</text><rect fill="rgb(255,255,255)" height="20" stroke="black" stroke-width="1" width="20" x="40" y="100" /><text alignment-baseline="central" font-size="8px" text-anchor="middle" x="50" y="110">32</text><rect fill="rgb(255,255,255)" height="20" stroke="black" stroke-width="1" width="20" x="60" y="100" /><text alignment-baseline="central" font-size="8px" text-anchor="middle" x="70" y="110">56</text><rect fill="rgb(255,255,255)" height="20" stroke="black" stroke-width="1" width="20" x="80" y="100" /><text alignment-baseline="central" font-size="8px" text-anchor="middle" x="90" y="110">80</text><rect fill="rgb(255,255,255)" height="20" stroke="black" stroke-width="1" width="20" x="100" y="100" /><text alignment-baseline="central" font-size="8px" text-anchor="middle" x="110" y="110">104</text><rect fill="rgb(230,230,230)" height="20" stroke="black" stroke-width="1" width="20" x="120" y="100" /><text alignment-baseline="central" font-size="8px" text-anchor="middle" x="130" y="110">9</text><rect fill="rgb(230,230,230)" height="20" stroke="black" stroke-width="1" width="20" x="140" y="100" /><text alignment-baseline="central" font-size="8px" text-anchor="middle" x="150" y="110">33</text><rect fill="rgb(230,230,230)" height="20" stroke="black" stroke-width="1" width="20" x="160" y="100" /><text alignment-baseline="central" font-size="8px" text-anchor="middle" x="170" y="110">57</text><rect fill="rgb(230,230,230)" height="20" stroke="black" stroke-width="1" width="20" x="180" y="100" /><text alignment-baseline="central" font-size="8px" text-anchor="middle" x="190" y="110">81</text><rect fill="rgb(230,230,230)" height="20" stroke="black" stroke-width="1" width="20" x="200" y="100" /><text alignment-baseline="central" font-size="8px" text-anchor="middle" x="210" y="110">105</text><rect fill="rgb(205,205,205)" height="20" stroke="black" stroke-width="1" width="20" x="220" y="100" /><text alignment-baseline="central" font-size="8px" text-anchor="middle" x="230" y="110">10</text><rect fill="rgb(205,205,205)" height="20" stroke="black" stroke-width="1" width="20" x="240" y="100" /><text alignment-baseline="central" font-size="8px" text-anchor="middle" x="250" y="110">34</text><rect fill="rgb(205,205,205)" height="20" stroke="black" stroke-width="1" width="20" x="260" y="100" /><text alignment-baseline="central" font-size="8px" text-anchor="middle" x="270" y="110">58</text><rect fill="rgb(205,205,205)" height="20" stroke="black" stroke-width="1" width="20" x="280" y="100" /><text alignment-baseline="central" font-size="8px" text-anchor="middle" x="290" y="110">82</text><rect fill="rgb(205,205,205)" height="20" stroke="black" stroke-width="1" width="20" x="300" y="100" /><text alignment-baseline="central" font-size="8px" text-anchor="middle" x="310" y="110">106</text><rect fill="rgb(180,180,180)" height="20" stroke="black" stroke-width="1" width="20" x="320" y="100" /><text alignment-baseline="central" font-size="8px" text-anchor="middle" x="330" y="110">11</text><rect fill="rgb(180,180,180)" height="20" stroke="black" stroke-width="1" width="20" x="340" y="100" /><text alignment-baseline="central" font-size="8px" text-anchor="middle" x="350" y="110">35</text><rect fill="rgb(180,180,180)" height="20" stroke="black" stroke-width="1" width="20" x="360" y="100" /><text alignment-baseline="central" font-size="8px" text-anchor="middle" x="370" y="110">59</text><rect fill="rgb(180,180,180)" height="20" stroke="black" stroke-width="1" width="20" x="380" y="100" /><text alignment-baseline="central" font-size="8px" text-anchor="middle" x="390" y="110">83</text><rect fill="rgb(180,180,180)" height="20" stroke="black" stroke-width="1" width="20" x="400" y="100" /><text alignment-baseline="central" font-size="8px" text-anchor="middle" x="410" y="110">107</text><rect fill="rgb(155,155,155)" height="20" stroke="black" stroke-width="1" width="20" x="20" y="120" /><text alignment-baseline="central" font-size="8px" text-anchor="middle" x="30" y="130">20</text><rect fill="rgb(155,155,155)" height="20" stroke="black" stroke-width="1" width="20" x="40" y="120" /><text alignment-baseline="central" font-size="8px" text-anchor="middle" x="50" y="130">44</text><rect fill="rgb(155,155,155)" height="20" stroke="black" stroke-width="1" width="20" x="60" y="120" /><text alignment-baseline="central" font-size="8px" text-anchor="middle" x="70" y="130">68</text><rect fill="rgb(155,155,155)" height="20" stroke="black" stroke-width="1" width="20" x="80" y="120" /><text alignment-baseline="central" font-size="8px" text-anchor="middle" x="90" y="130">92</text><rect fill="rgb(155,155,155)" height="20" stroke="black" stroke-width="1" width="20" x="100" y="120" /><text alignment-baseline="central" font-size="8px" text-anchor="middle" x="110" y="130">116</text><rect fill="rgb(130,130,130)" height="20" stroke="black" stroke-width="1" width="20" x="120" y="120" /><text alignment-baseline="central" font-size="8px" text-anchor="middle" x="130" y="130">21</text><rect fill="rgb(130,130,130)" height="20" stroke="black" stroke-width="1" width="20" x="140" y="120" /><text alignment-baseline="central" font-size="8px" text-anchor="middle" x="150" y="130">45</text><rect fill="rgb(130,130,130)" height="20" stroke="black" stroke-width="1" width="20" x="160" y="120" /><text alignment-baseline="central" font-size="8px" text-anchor="middle" x="170" y="130">69</text><rect fill="rgb(130,130,130)" height="20" stroke="black" stroke-width="1" width="20" x="180" y="120" /><text alignment-baseline="central" font-size="8px" text-anchor="middle" x="190" y="130">93</text><rect fill="rgb(130,130,130)" height="20" stroke="black" stroke-width="1" width="20" x="200" y="120" /><text alignment-baseline="central" font-size="8px" text-anchor="middle" x="210" y="130">117</text><rect fill="rgb(105,105,105)" height="20" stroke="black" stroke-width="1" width="20" x="220" y="120" /><text alignment-baseline="central" font-size="8px" text-anchor="middle" x="230" y="130">22</text><rect fill="rgb(105,105,105)" height="20" stroke="black" stroke-width="1" width="20" x="240" y="120" /><text alignment-baseline="central" font-size="8px" text-anchor="middle" x="250" y="130">46</text><rect fill="rgb(105,105,105)" height="20" stroke="black" stroke-width="1" width="20" x="260" y="120" /><text alignment-baseline="central" font-size="8px" text-anchor="middle" x="270" y="130">70</text><rect fill="rgb(105,105,105)" height="20" stroke="black" stroke-width="1" width="20" x="280" y="120" /><text alignment-baseline="central" font-size="8px" text-anchor="middle" x="290" y="130">94</text><rect fill="rgb(105,105,105)" height="20" stroke="black" stroke-width="1" width="20" x="300" y="120" /><text alignment-baseline="central" font-size="8px" text-anchor="middle" x="310" y="130">118</text><rect fill="rgb(80,80,80)" height="20" stroke="black" stroke-width="1" width="20" x="320" y="120" /><text alignment-baseline="central" font-size="8px" text-anchor="middle" x="330" y="130">23</text><rect fill="rgb(80,80,80)" height="20" stroke="black" stroke-width="1" width="20" x="340" y="120" /><text alignment-baseline="central" font-size="8px" text-anchor="middle" x="350" y="130">47</text><rect fill="rgb(80,80,80)" height="20" stroke="black" stroke-width="1" width="20" x="360" y="120" /><text alignment-baseline="central" font-size="8px" text-anchor="middle" x="370" y="130">71</text><rect fill="rgb(80,80,80)" height="20" stroke="black" stroke-width="1" width="20" x="380" y="120" /><text alignment-baseline="central" font-size="8px" text-anchor="middle" x="390" y="130">95</text><rect fill="rgb(80,80,80)" height="20" stroke="black" stroke-width="1" width="20" x="400" y="120" /><text alignment-baseline="central" font-size="8px" text-anchor="middle" x="410" y="130">119</text><text alignment-baseline="central" font-size="8px" text-anchor="middle" x="30" y="10">0</text><text alignment-baseline="central" font-size="8px" text-anchor="middle" x="50" y="10">1</text><text alignment-baseline="central" font-size="8px" text-anchor="middle" x="70" y="10">2</text><text alignment-baseline="central" font-size="8px" text-anchor="middle" x="90" y="10">3</text><text alignment-baseline="central" font-size="8px" text-anchor="middle" x="110" y="10">4</text><text alignment-baseline="central" font-size="8px" text-anchor="middle" x="130" y="10">5</text><text alignment-baseline="central" font-size="8px" text-anchor="middle" x="150" y="10">6</text><text alignment-baseline="central" font-size="8px" text-anchor="middle" x="170" y="10">7</text><text alignment-baseline="central" font-size="8px" text-anchor="middle" x="190" y="10">8</text><text alignment-baseline="central" font-size="8px" text-anchor="middle" x="210" y="10">9</text><text alignment-baseline="central" font-size="8px" text-anchor="middle" x="230" y="10">10</text><text alignment-baseline="central" font-size="8px" text-anchor="middle" x="250" y="10">11</text><text alignment-baseline="central" font-size="8px" text-anchor="middle" x="270" y="10">12</text><text alignment-baseline="central" font-size="8px" text-anchor="middle" x="290" y="10">13</text><text alignment-baseline="central" font-size="8px" text-anchor="middle" x="310" y="10">14</text><text alignment-baseline="central" font-size="8px" text-anchor="middle" x="330" y="10">15</text><text alignment-baseline="central" font-size="8px" text-anchor="middle" x="350" y="10">16</text><text alignment-baseline="central" font-size="8px" text-anchor="middle" x="370" y="10">17</text><text alignment-baseline="central" font-size="8px" text-anchor="middle" x="390" y="10">18</text><text alignment-baseline="central" font-size="8px" text-anchor="middle" x="410" y="10">19</text><text alignment-baseline="central" font-size="8px" text-anchor="middle" x="10" y="30">0</text><text alignment-baseline="central" font-size="8px" text-anchor="middle" x="10" y="50">1</text><text alignment-baseline="central" font-size="8px" text-anchor="middle" x="10" y="70">2</text><text alignment-baseline="central" font-size="8px" text-anchor="middle" x="10" y="90">3</text><text alignment-baseline="central" font-size="8px" text-anchor="middle" x="10" y="110">4</text><text alignment-baseline="central" font-size="8px" text-anchor="middle" x="10" y="130">5</text></svg>